<?xml version="1.0" encoding="UTF-8" standalone="no"?>
<!-- Created with Inkscape (http://www.inkscape.org/) -->

<svg
   width="125.74397mm"
   height="103.33607mm"
   viewBox="0 0 125.74397 103.33607"
   version="1.1"
   id="svg1"
   sodipodi:docname="drawing-1.svg"
   inkscape:version="1.3.2 (091e20e, 2023-11-25, custom)"
   xmlns:inkscape="http://www.inkscape.org/namespaces/inkscape"
   xmlns:sodipodi="http://sodipodi.sourceforge.net/DTD/sodipodi-0.dtd"
   xmlns:xlink="http://www.w3.org/1999/xlink"
   xmlns="http://www.w3.org/2000/svg"
   xmlns:svg="http://www.w3.org/2000/svg">
  <sodipodi:namedview
     id="namedview1"
     pagecolor="#ffffff"
     bordercolor="#000000"
     borderopacity="0.25"
     inkscape:showpageshadow="2"
     inkscape:pageopacity="0.0"
     inkscape:pagecheckerboard="0"
     inkscape:deskcolor="#d1d1d1"
     inkscape:document-units="mm"
     inkscape:lockguides="false"
     inkscape:zoom="1"
     inkscape:cx="206"
     inkscape:cy="205.5"
     inkscape:window-width="1366"
     inkscape:window-height="697"
     inkscape:window-x="-8"
     inkscape:window-y="-8"
     inkscape:window-maximized="1"
     inkscape:current-layer="layer1" />
  <defs
     id="defs1">
    <rect
       x="703.29504"
       y="562.14752"
       width="0.14045171"
       height="58.059265"
       id="rect32" />
    <rect
       x="133.50203"
       y="395.65314"
       width="0.35841522"
       height="69.636375"
       id="rect29" />
    <rect
       x="863.26178"
       y="350.84683"
       width="25.918537"
       height="37.111748"
       id="rect24" />
    <rect
       x="304"
       y="576"
       width="50"
       height="44"
       id="rect10" />
    <rect
       x="302"
       y="571"
       width="70"
       height="59"
       id="rect9" />
  </defs>
  <g
     inkscape:label="Layer 1"
     inkscape:groupmode="layer"
     id="layer1"
     transform="translate(-50.535415,-69.05625)">
    <text
       xml:space="preserve"
       transform="scale(0.26458333)"
       id="text9"
       style="font-style:normal;font-variant:normal;font-weight:bold;font-stretch:normal;font-size:40.1667px;font-family:Constantia;-inkscape-font-specification:'Constantia, Bold';font-variant-ligatures:normal;font-variant-caps:normal;font-variant-numeric:normal;font-variant-east-asian:normal;text-align:center;letter-spacing:7px;white-space:pre;shape-inside:url(#rect9);fill:#000000;stroke:#000000" />
    <text
       xml:space="preserve"
       transform="scale(0.26458333)"
       id="text10"
       style="font-style:normal;font-variant:normal;font-weight:bold;font-stretch:normal;font-size:40.1667px;font-family:Constantia;-inkscape-font-specification:'Constantia, Bold';font-variant-ligatures:normal;font-variant-caps:normal;font-variant-numeric:normal;font-variant-east-asian:normal;text-align:center;letter-spacing:7px;white-space:pre;shape-inside:url(#rect10);fill:#000000;stroke:#000000" />
    <text
       xml:space="preserve"
       style="font-style:normal;font-variant:normal;font-weight:bold;font-stretch:normal;font-size:10.6274px;font-family:Constantia;-inkscape-font-specification:'Constantia, Bold';font-variant-ligatures:normal;font-variant-caps:normal;font-variant-numeric:normal;font-variant-east-asian:normal;text-align:center;letter-spacing:1.85208px;text-anchor:middle;opacity:1;fill:none;stroke:#000000;stroke-width:3;stroke-linecap:round;stroke-linejoin:miter;stroke-miterlimit:3.1;stroke-dasharray:none"
       x="38.629166"
       y="90.222916"
       id="text19"><tspan
         sodipodi:role="line"
         id="tspan19"
         style="stroke-width:3"
         x="38.629166"
         y="90.222916" /></text>
    <text
       xml:space="preserve"
       style="font-style:normal;font-variant:normal;font-weight:bold;font-stretch:normal;font-size:1.10239px;font-family:Constantia;-inkscape-font-specification:'Constantia, Bold';font-variant-ligatures:normal;font-variant-caps:normal;font-variant-numeric:normal;font-variant-east-asian:normal;text-align:center;letter-spacing:1.85208px;text-anchor:middle;opacity:1;fill:none;stroke:#000000;stroke-width:3;stroke-linecap:round;stroke-linejoin:miter;stroke-miterlimit:3.1;stroke-dasharray:none"
       x="31.75"
       y="68.791664"
       id="text20"><tspan
         sodipodi:role="line"
         id="tspan20"
         style="stroke-width:3"
         x="31.75"
         y="68.791664" /></text>
    <text
       xml:space="preserve"
       style="font-style:normal;font-variant:normal;font-weight:bold;font-stretch:normal;font-size:1.10239px;font-family:Constantia;-inkscape-font-specification:'Constantia, Bold';font-variant-ligatures:normal;font-variant-caps:normal;font-variant-numeric:normal;font-variant-east-asian:normal;text-align:center;letter-spacing:1.85208px;text-anchor:middle;opacity:1;fill:none;stroke:#000000;stroke-width:3;stroke-linecap:round;stroke-linejoin:miter;stroke-miterlimit:3.1;stroke-dasharray:none"
       x="57.414581"
       y="77.258331"
       id="text21"><tspan
         sodipodi:role="line"
         id="tspan21"
         style="stroke-width:3"
         x="57.414581"
         y="77.258331" /></text>
    <text
       xml:space="preserve"
       style="font-style:normal;font-variant:normal;font-weight:normal;font-stretch:normal;font-size:8.81944px;line-height:0.7;font-family:Sans;-inkscape-font-specification:'Sans, Normal';font-variant-ligatures:normal;font-variant-caps:normal;font-variant-numeric:normal;font-variant-east-asian:normal;text-align:center;letter-spacing:1.85208px;text-anchor:middle;opacity:1;fill:none;stroke:#000000;stroke-width:3;stroke-linecap:round;stroke-linejoin:miter;stroke-miterlimit:3.1;stroke-dasharray:none"
       x="56.620834"
       y="73.818748"
       id="text22"><tspan
         sodipodi:role="line"
         id="tspan22"
         x="56.620834"
         y="73.818748" /></text>
    <text
       xml:space="preserve"
       style="font-style:normal;font-variant:normal;font-weight:normal;font-stretch:normal;font-size:8.81944px;font-family:Sans;-inkscape-font-specification:'Sans, Normal';font-variant-ligatures:normal;font-variant-caps:normal;font-variant-numeric:normal;font-variant-east-asian:normal;text-align:center;letter-spacing:1.85208px;text-anchor:middle;opacity:1;fill:none;stroke:#000000;stroke-width:3;stroke-linecap:round;stroke-linejoin:miter;stroke-miterlimit:3.1;stroke-dasharray:none"
       x="48.683334"
       y="65.087502"
       id="text23"><tspan
         sodipodi:role="line"
         id="tspan23"
         style="stroke-width:3"
         x="48.683334"
         y="65.087502" /></text>
    <text
       xml:space="preserve"
       transform="scale(0.26458333)"
       id="text24"
       style="font-style:normal;font-variant:normal;font-weight:normal;font-stretch:normal;font-size:33.3333px;line-height:0.7;font-family:Sans;-inkscape-font-specification:'Sans, Normal';font-variant-ligatures:normal;font-variant-caps:normal;font-variant-numeric:normal;font-variant-east-asian:normal;text-align:center;letter-spacing:7px;white-space:pre;shape-inside:url(#rect24);opacity:1;fill:none;stroke:#000000;stroke-width:11.3386;stroke-linecap:round;stroke-linejoin:miter;stroke-miterlimit:3.1;stroke-dasharray:none" />
    <text
       xml:space="preserve"
       style="font-style:normal;font-variant:normal;font-weight:normal;font-stretch:normal;font-size:12.7px;line-height:0.7;font-family:Sans;-inkscape-font-specification:'Sans, Normal';font-variant-ligatures:normal;font-variant-caps:normal;font-variant-numeric:normal;font-variant-east-asian:normal;text-align:center;letter-spacing:1.85208px;text-anchor:middle;opacity:1;fill:none;stroke:#000000;stroke-width:3;stroke-linecap:round;stroke-linejoin:miter;stroke-miterlimit:3.1;stroke-dasharray:none"
       x="55.611572"
       y="60.130013"
       id="text25"><tspan
         sodipodi:role="line"
         id="tspan25"
         x="55.611572"
         y="60.130013"></tspan></text>
    <text
       xml:space="preserve"
       style="font-style:normal;font-variant:normal;font-weight:normal;font-stretch:normal;font-size:12.7706px;line-height:0.7;font-family:Sans;-inkscape-font-specification:'Sans, Normal';font-variant-ligatures:normal;font-variant-caps:normal;font-variant-numeric:normal;font-variant-east-asian:normal;text-align:center;letter-spacing:1.85208px;text-anchor:middle;opacity:1;fill:none;stroke:#000000;stroke-width:3;stroke-linecap:round;stroke-linejoin:miter;stroke-miterlimit:3.1;stroke-dasharray:none"
       x="71.4375"
       y="56.091667"
       id="text26"><tspan
         sodipodi:role="line"
         id="tspan26"
         x="71.4375"
         y="56.091667"></tspan></text>
    <text
       xml:space="preserve"
       style="font-style:normal;font-variant:normal;font-weight:normal;font-stretch:normal;font-size:12.8014px;line-height:0;font-family:Sans;-inkscape-font-specification:'Sans, Normal';font-variant-ligatures:normal;font-variant-caps:normal;font-variant-numeric:normal;font-variant-east-asian:normal;text-align:center;letter-spacing:1.85208px;text-anchor:middle;opacity:1;fill:none;stroke:#000000;stroke-width:0.854;stroke-linecap:round;stroke-linejoin:miter;stroke-miterlimit:3.1;stroke-dasharray:none"
       x="38.364582"
       y="63.5"
       id="text27"><tspan
         sodipodi:role="line"
         id="tspan27"
         style="font-style:normal;font-variant:normal;font-weight:normal;font-stretch:normal;font-size:12.8014px;line-height:0;font-family:Sans;-inkscape-font-specification:'Sans, Normal';font-variant-ligatures:normal;font-variant-caps:normal;font-variant-numeric:normal;font-variant-east-asian:normal;stroke-width:0.854;stroke-dasharray:none"
         x="38.364582"
         y="63.5" /></text>
    <text
       xml:space="preserve"
       style="font-style:normal;font-variant:normal;font-weight:bold;font-stretch:normal;font-size:12.8014px;line-height:0;font-family:Constantia;-inkscape-font-specification:'Constantia, Bold';font-variant-ligatures:normal;font-variant-caps:normal;font-variant-numeric:normal;font-variant-east-asian:normal;text-align:center;letter-spacing:1.85208px;text-anchor:middle;opacity:1;fill:none;stroke:#000000;stroke-width:0.854001;stroke-linecap:round;stroke-linejoin:miter;stroke-miterlimit:3.1;stroke-dasharray:none"
       x="82.814583"
       y="69.320831"
       id="text28"><tspan
         sodipodi:role="line"
         id="tspan28"
         style="font-style:normal;font-variant:normal;font-weight:bold;font-stretch:normal;font-size:12.8014px;font-family:Constantia;-inkscape-font-specification:'Constantia, Bold';font-variant-ligatures:normal;font-variant-caps:normal;font-variant-numeric:normal;font-variant-east-asian:normal;fill:none;stroke-width:0.854"
         x="82.814583"
         y="69.320831" /></text>
    <text
       xml:space="preserve"
       transform="scale(0.26458333)"
       id="text29"
       style="font-style:normal;font-variant:normal;font-weight:bold;font-stretch:normal;font-size:48.3832px;line-height:0;font-family:Constantia;-inkscape-font-specification:'Constantia, Bold';font-variant-ligatures:normal;font-variant-caps:normal;font-variant-numeric:normal;font-variant-east-asian:normal;text-align:center;letter-spacing:7px;white-space:pre;shape-inside:url(#rect29);opacity:1;fill:none;stroke:#000000;stroke-width:3.22772;stroke-linecap:round;stroke-linejoin:miter;stroke-miterlimit:3.1;stroke-dasharray:none" />
    <text
       xml:space="preserve"
       transform="scale(0.26458333)"
       id="text32"
       style="font-style:normal;font-variant:normal;font-weight:bold;font-stretch:normal;font-size:48.3832px;line-height:0;font-family:Constantia;-inkscape-font-specification:'Constantia, Bold';font-variant-ligatures:normal;font-variant-caps:normal;font-variant-numeric:normal;font-variant-east-asian:normal;text-align:center;letter-spacing:7px;white-space:pre;shape-inside:url(#rect32);opacity:1;fill:#000000;stroke:#000000;stroke-width:3.22772;stroke-linecap:round;stroke-linejoin:miter;stroke-miterlimit:3.1;stroke-dasharray:none" />
    <path
       style="opacity:1;fill:#1a1a1a;fill-opacity:0;stroke:#000000;stroke-width:2.99189;stroke-linecap:round;stroke-linejoin:miter;stroke-miterlimit:3.1;stroke-dasharray:none;stroke-opacity:1"
       d=""
       id="path52"
       transform="scale(0.26458333)" />
    <path
       style="opacity:1;fill:#1a1a1a;fill-opacity:0;stroke:#000000;stroke-width:2.99189;stroke-linecap:round;stroke-linejoin:miter;stroke-miterlimit:3.1;stroke-dasharray:none;stroke-opacity:1"
       d=""
       id="path53"
       transform="scale(0.26458333)" />
    <path
       style="opacity:1;fill:#1a1a1a;fill-opacity:0;stroke:#000000;stroke-width:2.99189;stroke-linecap:round;stroke-linejoin:miter;stroke-miterlimit:3.1;stroke-dasharray:none;stroke-opacity:1"
       d=""
       id="path54"
       transform="scale(0.26458333)" />
    <text
       xml:space="preserve"
       style="font-style:normal;font-variant:normal;font-weight:bold;font-stretch:normal;font-size:12.8014px;line-height:0;font-family:Constantia;-inkscape-font-specification:'Constantia, Bold';font-variant-ligatures:normal;font-variant-caps:normal;font-variant-numeric:normal;font-variant-east-asian:normal;text-align:center;letter-spacing:1.85208px;text-anchor:middle;opacity:1;fill:#1a1a1a;fill-opacity:0;stroke:#000000;stroke-width:1.90103;stroke-linecap:round;stroke-linejoin:miter;stroke-miterlimit:3.1;stroke-dasharray:none;stroke-opacity:1"
       x="53.219742"
       y="89.026566"
       id="text58"><tspan
         sodipodi:role="line"
         id="tspan58"
         style="stroke-width:1.90103;stroke-dasharray:none"
         x="53.219742"
         y="89.026566" /></text>
    <path
       style="opacity:1;fill:#ff0000;fill-opacity:0;stroke:none;stroke-width:29.662;stroke-linecap:square;stroke-linejoin:miter;stroke-miterlimit:3.1;stroke-dasharray:none;stroke-opacity:1"
       d=""
       id="path65"
       transform="scale(0.26458333)" />
    <path
       style="fill:none;fill-opacity:0;stroke:#ff2c00;stroke-width:7.13273;stroke-linecap:square;stroke-linejoin:miter;stroke-miterlimit:3.1;stroke-dasharray:none;stroke-opacity:1"
       d="m 162.51121,107.17067 h -22.86367 l 2.39524,8.23388 -0.871,8.03785 22.21043,0.19604 -2.61298,-8.42993 z"
       id="path80" />
    <path
       style="fill:none;fill-opacity:0;stroke:#ff2c00;stroke-width:6.45239;stroke-linecap:square;stroke-linejoin:miter;stroke-miterlimit:3.1;stroke-dasharray:none;stroke-opacity:1"
       d="m 75.855692,108.30971 -19.11937,-0.38369 1.456714,7.86577 -2.00298,7.6739 18.208923,0.3837 -0.364178,-8.0576 z"
       id="path75"
       inkscape:transform-center-x="-0.033631398"
       inkscape:transform-center-y="0.21785557" />
    <ellipse
       style="fill:none;fill-opacity:0;stroke:#f3e57b;stroke-width:50.7182;stroke-linecap:square;stroke-linejoin:miter;stroke-miterlimit:3.1;stroke-dasharray:none;stroke-opacity:1"
       id="path58"
       cx="-109.48017"
       cy="-120.53632"
       rx="27.352921"
       ry="24.165726"
       transform="scale(-1)" />
    <path
       id="path7"
       style="fill:none;stroke-width:0.315277"
       d="M 107.34313,72.010973 A 48.989251,47.335444 9.1725757 0 0 59.066553,119.52223 48.989251,47.335444 9.1725757 0 0 108.67673,166.76697 48.989251,47.335444 9.1725757 0 0 156.95331,119.25571 48.989251,47.335444 9.1725757 0 0 107.34313,72.010973 Z" />
    <path
       id="path5"
       style="fill:none;stroke-width:0.169995"
       d="M 108.27959,158.99978 A 40.016693,38.9638 13.196476 0 1 68.142924,119.68939 40.016693,38.9638 13.196476 0 1 107.93048,80.963197 40.016693,38.9638 13.196476 0 1 148.06716,120.27355 40.016693,38.9638 13.196476 0 1 108.27959,158.99978 Z" />
    <text
       xml:space="preserve"
       style="font-size:10.2518px;fill:#13153a;fill-opacity:1;stroke-width:0.854315"
       id="text6"
       transform="translate(1.226261)"><textPath
         xlink:href="#path5"
         startOffset="50%"
         id="textPath7"><tspan
           id="tspan6"
           style="font-style:normal;font-variant:normal;font-weight:bold;font-stretch:normal;font-size:12.8014px;font-family:Constantia;-inkscape-font-specification:'Constantia, Bold';font-variant-ligatures:normal;font-variant-caps:normal;font-variant-numeric:normal;font-variant-east-asian:normal;text-align:center;text-anchor:middle;fill:#13153a;fill-opacity:1;stroke-width:0.854315">FABULOUS</tspan></textPath></text>
    <text
       xml:space="preserve"
       style="font-size:10.2518px;letter-spacing:1.85208px;fill:#13153a;fill-opacity:1;stroke-width:0.854315"
       id="text7"><textPath
         xlink:href="#path7"
         startOffset="50%"
         id="textPath8"
         style="font-style:normal;font-variant:normal;font-weight:bold;font-stretch:normal;font-size:12.8014px;font-family:Constantia;-inkscape-font-specification:'Constantia, Bold';font-variant-ligatures:normal;font-variant-caps:normal;font-variant-numeric:normal;font-variant-east-asian:normal;text-align:center;letter-spacing:1.85208px;text-anchor:middle;fill:#13153a;fill-opacity:1;stroke-width:0.854315">LOGO DESIGN</textPath></text>
    <path
       id="path16"
       style="fill:none;stroke:#13153a;stroke-width:2.9494;stroke-linecap:round;stroke-miterlimit:3.1;stroke-opacity:1"
       d="m 139.63926,105.74582 h 27.00973 l -2.32281,10.19649 2.32281,10.19649 h -24.42882 m -65.045285,0 H 52.573153 l 3.355172,-10.19649 -3.355172,-10.19649 v 0 h 27.209351 m -10.896648,28.25529 a 43.343806,42.06621 0 0 1 -2.187716,-7.85855 m 1.658769,-20.40197 a 43.343806,42.06621 0 0 1 2.577365,-5.904007 m 77.031356,0.0406 a 43.343806,42.06621 0 0 1 2.55571,5.863257 m 1.65875,20.40231 a 43.343806,42.06621 0 0 1 -2.18767,7.8583 m -7.20064,-13.80116 A 33.094566,33.939088 0 0 1 109.69722,154.13901 33.094566,33.939088 0 0 1 76.602654,120.19993 33.094566,33.939088 0 0 1 109.69722,86.260847 33.094566,33.939088 0 0 1 142.79178,120.19993 Z M 60.095932,105.72741 a 51.705027,50.193338 0 0 1 49.343208,-35.19646 51.705027,50.193338 0 0 1 49.34832,35.2123 m 2.05417,20.40303 a 51.705027,50.193338 0 0 1 -51.40249,44.77134 51.705027,50.193338 0 0 1 -51.402473,-44.77134" />
    <text
       xml:space="preserve"
       style="font-style:normal;font-variant:normal;font-weight:bold;font-stretch:normal;font-size:11.5513px;line-height:0;font-family:Constantia;-inkscape-font-specification:'Constantia, Bold';font-variant-ligatures:normal;font-variant-caps:normal;font-variant-numeric:normal;font-variant-east-asian:normal;text-align:center;letter-spacing:1.67122px;text-anchor:middle;fill:#13153a;fill-opacity:1;stroke:#000000;stroke-width:0.770606;stroke-linecap:round;stroke-linejoin:miter;stroke-miterlimit:3.1;stroke-dasharray:none"
       x="72.731384"
       y="105.51192"
       id="text30"
       transform="scale(0.89252245,1.12042)"><tspan
         sodipodi:role="line"
         id="tspan30"
         style="fill:#13153a;fill-opacity:1;stroke-width:0.770605"
         x="73.566994"
         y="105.51192">20</tspan></text>
    <text
       xml:space="preserve"
       style="font-style:normal;font-variant:normal;font-weight:bold;font-stretch:normal;font-size:11.1318px;line-height:0;font-family:Constantia;-inkscape-font-specification:'Constantia, Bold';font-variant-ligatures:normal;font-variant-caps:normal;font-variant-numeric:normal;font-variant-east-asian:normal;text-align:center;letter-spacing:1.61053px;text-anchor:middle;fill:#13153a;fill-opacity:1;stroke:#000000;stroke-width:0.742619;stroke-linecap:round;stroke-linejoin:miter;stroke-miterlimit:3.1;stroke-dasharray:none"
       x="158.56885"
       y="113.69176"
       id="text31"
       transform="scale(0.96727206,1.0338353)"><tspan
         sodipodi:role="line"
         id="tspan31"
         style="fill:#13153a;fill-opacity:1;stroke-width:0.742618"
         x="159.37411"
         y="113.69176">23</tspan></text>
    <ellipse
       style="fill:none;fill-opacity:0;stroke:#1cccd7;stroke-width:32.1706;stroke-linecap:square;stroke-linejoin:miter;stroke-miterlimit:3.1;stroke-dasharray:none;stroke-opacity:1"
       id="ellipse58"
       cx="-109.6028"
       cy="-120.04704"
       rx="16.182266"
       ry="16.434393"
       transform="scale(-1)" />
    <path
       style="fill:#ff0000;fill-opacity:0;stroke:none;stroke-width:8.4562;stroke-linecap:square;stroke-linejoin:miter;stroke-miterlimit:3.1;stroke-dasharray:none;stroke-opacity:1"
       d="m 75.725953,125.67413 -25.015732,0.24464 4.414541,-10.76443 -3.924035,-10.03049 H 78.66898 l -3.433532,9.78585 z"
       id="path64" />
    <path
       style="fill:#ff0000;fill-opacity:0;stroke:none;stroke-width:7.83837;stroke-linecap:square;stroke-linejoin:miter;stroke-miterlimit:3.1;stroke-dasharray:none;stroke-opacity:1"
       d="m 56.964156,121.39282 v -2.69111 h 2.419186 2.419186 l 0.155961,-1.13505 c 0.291222,-2.11943 0.242713,-2.31971 -0.51848,-2.14075 -0.554558,0.13039 -0.61995,0.10077 -0.367879,-0.16659 0.48155,-0.51076 0.378603,-2.11261 -0.171003,-2.66086 -0.558355,-0.55697 -2.238571,-1.06298 -2.807073,-0.84537 -0.216778,0.083 -0.391446,0.0565 -0.388146,-0.0588 0.0096,-0.3371 0.479724,-2.30509 0.882814,-3.69587 l 0.372255,-1.28439 h 8.715293 c 8.201679,0 8.705252,0.0252 8.544925,0.42813 -1.421344,3.57182 -1.966156,6.9607 -1.966473,12.23202 l -2.65e-4,4.70916 -8.645141,2.7e-4 -8.645141,2.6e-4 z m 12.673219,-3.06351 c 2.041636,-1.33442 2.065102,-4.90201 0.0401,-6.09526 -0.92483,-0.54496 -2.990522,-0.60238 -4.01384,-0.11157 -1.640708,0.78692 -2.367831,3.36889 -1.448269,5.14273 0.794579,1.53275 3.801973,2.12297 5.422014,1.0641 z"
       id="path66" />
    <path
       style="fill:#ff0000;fill-opacity:0;stroke:none;stroke-width:7.83837;stroke-linecap:square;stroke-linejoin:miter;stroke-miterlimit:3.1;stroke-dasharray:none;stroke-opacity:1"
       d="m 54.687599,109.82225 c -0.501449,-1.51982 -0.911722,-2.84091 -0.911722,-2.93575 0,-0.0949 1.115441,-0.17245 2.478759,-0.17245 1.997544,0 2.453744,0.065 2.349884,0.33503 -0.07089,0.18426 -0.372639,1.3265 -0.670568,2.53831 -0.505703,2.05693 -0.597186,2.22969 -1.377193,2.60073 -0.459529,0.21859 -0.862941,0.39744 -0.896472,0.39744 -0.03353,0 -0.471239,-1.24349 -0.972688,-2.76331 z"
       id="path67" />
    <path
       style="fill:#f10d36;fill-opacity:0;stroke:none;stroke-width:7.83837;stroke-linecap:square;stroke-linejoin:miter;stroke-miterlimit:3.1;stroke-dasharray:none;stroke-opacity:1"
       d="m 54.687599,109.82225 c -0.501449,-1.51982 -0.911722,-2.84091 -0.911722,-2.93575 0,-0.0949 1.115441,-0.17245 2.478759,-0.17245 1.997544,0 2.453744,0.065 2.349884,0.33503 -0.07089,0.18426 -0.372639,1.3265 -0.670568,2.53831 -0.505703,2.05693 -0.597186,2.22969 -1.377193,2.60073 -0.459529,0.21859 -0.862941,0.39744 -0.896472,0.39744 -0.03353,0 -0.471239,-1.24349 -0.972688,-2.76331 z"
       id="path68" />
    <path
       style="fill:#df050c;fill-opacity:0;stroke:none;stroke-width:7.83837;stroke-linecap:square;stroke-linejoin:miter;stroke-miterlimit:3.1;stroke-dasharray:none;stroke-opacity:1"
       d="m 56.964156,121.39282 v -2.69111 h 2.419186 2.419186 l 0.155961,-1.13505 c 0.291222,-2.11943 0.242713,-2.31971 -0.51848,-2.14075 -0.554558,0.13039 -0.61995,0.10077 -0.367879,-0.16659 0.48155,-0.51076 0.378603,-2.11261 -0.171003,-2.66086 -0.558355,-0.55697 -2.238571,-1.06298 -2.807073,-0.84537 -0.216778,0.083 -0.391446,0.0565 -0.388146,-0.0588 0.0096,-0.3371 0.479724,-2.30509 0.882814,-3.69587 l 0.372255,-1.28439 h 8.715293 c 8.201679,0 8.705252,0.0252 8.544925,0.42813 -1.421344,3.57182 -1.966156,6.9607 -1.966473,12.23202 l -2.65e-4,4.70916 -8.645141,2.7e-4 -8.645141,2.6e-4 z m 12.673219,-3.06351 c 2.041636,-1.33442 2.065102,-4.90201 0.0401,-6.09526 -0.92483,-0.54496 -2.990522,-0.60238 -4.01384,-0.11157 -1.640708,0.78692 -2.367831,3.36889 -1.448269,5.14273 0.794579,1.53275 3.801973,2.12297 5.422014,1.0641 z"
       id="path69" />
    <path
       style="fill:#3e30c7;fill-opacity:0;stroke:none;stroke-width:8.4562;stroke-linecap:square;stroke-linejoin:miter;stroke-miterlimit:3.1;stroke-dasharray:none;stroke-opacity:1"
       d="m 77.197465,105.3685 -25.996738,-0.73395 3.678783,10.27515 -3.678783,10.03049 25.260983,0.73394 -0.981009,-9.5412 z"
       id="path70" />
    <path
       style="fill:#000000;fill-opacity:0;stroke:none;stroke-width:8.4562;stroke-linecap:square;stroke-linejoin:miter;stroke-miterlimit:3.1;stroke-dasharray:none;stroke-opacity:1"
       d="m 141.45356,105.61314 24.77047,-0.73393 -2.45252,10.51977 3.43353,10.0305 -24.27997,0.24465 0.24525,-9.5412 -1.96202,-6.60545 -0.73575,-4.15898 z"
       id="path71" />
    <path
       style="fill:#d40000;fill-opacity:0;stroke:none;stroke-width:8.4562;stroke-linecap:square;stroke-linejoin:miter;stroke-miterlimit:3.1;stroke-dasharray:none;stroke-opacity:1"
       d="m 167.69555,136.43856 4.16929,5.8715 v 8.80726 l -4.6598,-10.03049 -3.43353,7.82867 0.49051,-11.74301 1.96201,-0.48929 z"
       id="path72" />
    <path
       style="fill:#ff2a2a;fill-opacity:0;stroke:none;stroke-width:8.46667;stroke-linecap:square;stroke-linejoin:miter;stroke-miterlimit:3.1;stroke-dasharray:none;stroke-opacity:1"
       d="m 167.45029,142.97714 0.73576,12.99837 7.84807,-10.05535 0.24526,9.07434 z"
       id="path73" />
    <path
       style="fill:none;fill-opacity:0;stroke:none;stroke-width:8.4562;stroke-linecap:square;stroke-linejoin:miter;stroke-miterlimit:3.1;stroke-dasharray:none;stroke-opacity:1"
       d="m 78.178474,105.61314 -26.732494,-0.24464 3.188279,10.51978 -3.188279,9.05191 24.525224,0.48929 -0.735756,-10.51978 z"
       id="path74" />
  </g>
</svg>
