<?xml version="1.0" encoding="UTF-8" standalone="no"?>
<!-- Created with Inkscape (http://www.inkscape.org/) -->

<svg
   width="36.475941mm"
   height="4.2789741mm"
   viewBox="0 0 52.108483 6.1128223"
   version="1.1"
   id="svg1"
   xml:space="preserve"
   xmlns="http://www.w3.org/2000/svg"
   xmlns:svg="http://www.w3.org/2000/svg"><defs
     id="defs1" /><g
     id="layer1"
     transform="translate(-131.54522,-92.849156)"><g
       id="g3"
       transform="matrix(0.30594757,0,0,0.28869353,123.92869,59.800324)"><text
         xml:space="preserve"
         style="font-size:24.32px;fill:#fcfcfc;fill-opacity:1;stroke-width:2.02668;stroke-dasharray:none"
         x="24.378927"
         y="127.58825"
         id="text1"
         transform="scale(0.94222371,1.0613191)"><tspan
           id="tspan1"
           style="font-style:normal;font-variant:normal;font-weight:normal;font-stretch:normal;font-family:Calibri;-inkscape-font-specification:Calibri;fill:#fcfcfc;fill-opacity:1;stroke-width:2.02668;stroke-dasharray:none"
           x="24.378927"
           y="127.58825">FABULOUS HOPE</tspan></text><path
         style="fill:#fcfcfc;fill-opacity:1;stroke-width:2.495;stroke-dasharray:none"
         id="path3"
         d="m 181.36563,117.4708 c -0.20943,1.41524 -0.40993,2.82747 -0.14285,4.2452 0.87745,2.09526 3.60162,3.42471 5.83287,3.2424 1.28113,-0.2873 1.97611,-1.08666 2.5507,-2.21449 0.48563,-1.18035 0.71679,-2.38997 0.35173,-3.62399 -1.08574,-1.80322 -3.48902,-2.62345 -5.15147,-3.55347 -0.14615,-0.0818 -0.59899,-0.29913 -0.45373,-0.21578 1.05112,0.60322 2.11495,1.18399 3.17243,1.77598 0.11422,-0.31909 1.55871,-0.31516 1.90856,-0.33766 1.44542,-0.0859 2.89958,0.23122 4.23331,0.77574 -5.90904,-3.1955 -2.62258,-1.94417 -2.09338,-0.79228 0.27879,0.60683 0.15642,1.20764 0.0543,1.8334 -0.29944,1.23085 -1.22874,1.68209 -2.23858,2.23685 0,0 3.29454,2.14974 3.29454,2.14974 v 0 c 1.1076,-0.60679 2.05887,-1.24379 2.40442,-2.54716 0.64648,-3.46902 -1.27312,-3.50316 -4.50314,-5.29192 -1.40012,-0.47185 -2.85602,-0.77379 -4.34142,-0.6472 -0.85412,0.0677 -2.14031,0.0416 -2.36848,1.07588 1.18565,0.74141 2.36326,1.49583 3.55694,2.22424 0.13781,0.0841 0.57307,0.29642 0.43545,0.21202 -0.92402,-0.56672 -1.86094,-1.11221 -2.79632,-1.65998 -0.64934,-0.38027 1.99755,1.21269 1.32648,1.09036 0.0828,0.21869 0.29893,0.73755 0.31331,0.98045 0.0472,0.79719 -0.27812,1.62988 -0.51205,2.37186 -0.5105,1.00718 -1.15414,1.71097 -2.32995,1.85283 -0.48731,-0.0215 -0.54974,0.009 -1.01559,-0.14386 -0.15155,-0.0498 -0.57559,-0.27194 -0.44052,-0.18706 5.51719,3.46668 3.06544,2.2361 2.34984,1.09636 -0.3789,-1.35186 -0.15982,-2.7388 0.0888,-4.09902 z" /></g></g></svg>
